<svg id="Capa_1" enable-background="new 0 0 512 512" height="512" viewBox="0 0 512 512" width="512" xmlns="http://www.w3.org/2000/svg"><g><path d="m217.008 119.751h.057c5.522 0 9.972-4.477 9.972-10s-4.506-10-10.028-10-10 4.477-10 10 4.477 10 9.999 10z"/><path d="m382.043 21.743c-45.119 0-82.406 34.172-87.384 78.007h-32.736c-5.522 0-10 4.477-10 10s4.478 10 10 10h110.121v41.193c-15.71 5.052-37.923 4.31-51.727-2.24-20.92-9.879-53.677-9.878-74.583.008-15.562 7.385-41.86 7.384-57.434-.005-14.122-6.679-33.662-8.837-51.313-6.485l-14.509-32.471h49.645c5.522 0 10-4.477 10-10s-4.478-10-10-10h-58.582l-41.926-93.827c-2.253-5.042-8.167-7.303-13.21-5.05-5.042 2.253-7.303 8.167-5.05 13.209l38.28 85.669h-39.634c-5.522 0-10 4.477-10 10v77.98c0 35.584 22.094 41.607 36.714 45.593 12.612 3.438 16.248 4.875 16.248 14.897 0 40.087 32.605 72.701 72.682 72.701h14.653v90.967c0 19.179-.388 23.779-11.304 31.05l-32.431 14.405c-.484.215-.951.469-1.396.758-16.519 10.754-19.369 24.82-16.526 34.397 3.517 11.846 15.526 19.501 30.597 19.501h131.569c15.06 0 27.064-7.65 30.582-19.488 2.846-9.577.004-23.645-16.506-34.407-.446-.291-.915-.545-1.401-.762l-32.432-14.405c-10.916-7.271-11.304-11.871-11.304-31.05v-90.967h24.628c37.508 0 62.708-29.216 62.708-72.701 0-10.022 3.636-11.459 16.248-14.897 13.209-3.601 32.514-8.871 36.118-36.096 44.093-4.71 78.551-42.142 78.551-87.476 0-48.528-39.457-88.008-87.956-88.008zm-320.042 98.008h38.571l16.72 37.418c-1.225.486-2.424.997-3.581 1.543-13.788 6.543-35.999 7.284-51.71 2.232zm190.778 340.37c.445.291.913.544 1.399.761l32.407 14.394c6.345 4.332 8.421 8.883 7.632 11.539-.768 2.581-4.593 5.185-11.411 5.185h-131.568c-6.826 0-10.656-2.608-11.423-5.192-.788-2.653 1.292-7.201 7.642-11.53l32.409-14.396c.485-.216.954-.47 1.399-.761 21.033-13.703 21.033-28.187 21.033-48.233v-90.967h29.448v90.967c0 20.046 0 34.529 21.033 48.233zm119.264-272.391c0 20.307-8.27 22.561-21.974 26.297-12.34 3.364-30.988 8.447-30.988 34.193 0 25.477-11.22 52.701-42.708 52.701h-108.728c-29.049 0-52.682-23.642-52.682-52.701 0-25.746-18.648-30.829-30.988-34.193-13.703-3.735-21.974-5.99-21.974-26.297v-6.074c7.272 1.706 15.136 2.566 23.005 2.566 13.41 0 26.819-2.479 37.262-7.434 3.146-1.486 6.735-2.666 10.578-3.553.239-.044.476-.101.713-.163 15.09-3.307 33.958-2.072 46.179 3.708 20.909 9.92 53.664 9.921 74.559.005 15.562-7.362 41.888-7.36 57.464-.005 16.583 7.868 40.616 9.488 60.284 4.874v6.076zm-57.215-87.979c1.67-11.289 6.118-21.681 12.63-30.457l30.448 30.457zm57.215-14.147-30.452-30.461c8.773-6.525 19.164-10.984 30.452-12.657zm77.215 14.147h-43.086l30.446-30.471c6.518 8.778 10.97 19.176 12.64 30.471zm-57.215-57.266c11.282 1.673 21.668 6.127 30.437 12.647l-30.437 30.462zm0 134.503v-43.091l30.439 30.448c-8.77 6.518-19.156 10.971-30.439 12.643zm44.578-26.787-30.441-30.45h43.078c-1.671 11.286-6.122 21.677-12.637 30.45z"/></g></svg>