<?xml version="1.0" encoding="iso-8859-1"?>
<!-- Generator: Adobe Illustrator 19.0.0, SVG Export Plug-In . SVG Version: 6.00 Build 0)  -->
<svg version="1.1" id="Capa_1" xmlns="http://www.w3.org/2000/svg" xmlns:xlink="http://www.w3.org/1999/xlink" x="0px" y="0px"
	 viewBox="0 0 511.999 511.999" style="enable-background:new 0 0 511.999 511.999;" xml:space="preserve">
<g>
	<g>
		<g>
			<path d="M197.395,110.254c-2.22,3.49-1.193,8.119,2.294,10.346c1.251,0.798,2.647,1.179,4.028,1.179
				c2.475,0,4.898-1.225,6.329-3.466c0.979-1.536,23.717-37.893-1.008-62.717c-8.2-8.233-10.675-17.443-7.564-28.156
				c2.516-8.667,7.868-14.971,7.904-15.012c2.722-3.123,2.396-7.86-0.727-10.582c-3.125-2.722-7.861-2.396-10.582,0.727
				c-0.296,0.341-7.301,8.465-10.829,20.103c-3.423,11.294-4.265,28.009,11.17,43.506
				C214.584,82.42,197.675,109.807,197.395,110.254z"/>
			<path d="M148.905,260.209c-23.428,0-45.059-11.79-57.863-31.538c-2.254-3.475-6.896-4.466-10.373-2.213
				c-3.476,2.254-4.467,6.897-2.213,10.373c15.581,24.031,41.917,38.378,70.449,38.378c4.143,0,7.5-3.357,7.5-7.5
				S153.048,260.209,148.905,260.209z"/>
			<path d="M303.751,110.243c-2.229,3.492-1.204,8.129,2.287,10.357c1.251,0.798,2.647,1.179,4.028,1.179
				c2.475,0,4.898-1.225,6.329-3.466c0.979-1.536,23.717-37.893-1.008-62.717c-8.2-8.233-10.675-17.443-7.564-28.156
				c2.516-8.667,7.868-14.971,7.923-15.033c2.701-3.123,2.37-7.845-0.745-10.561c-3.125-2.722-7.86-2.396-10.582,0.727
				c-0.296,0.341-7.301,8.465-10.828,20.103c-3.424,11.294-4.266,28.009,11.169,43.506
				C320.984,82.472,303.916,109.982,303.751,110.243z"/>
			<path d="M250.576,110.243c-2.229,3.492-1.204,8.128,2.287,10.357c1.251,0.798,2.647,1.179,4.028,1.179
				c2.475,0,4.898-1.225,6.329-3.466c0.979-1.536,23.717-37.893-1.008-62.717c-8.2-8.233-10.674-17.443-7.564-28.156
				c2.516-8.667,7.869-14.97,7.923-15.033c2.701-3.124,2.37-7.845-0.745-10.561c-3.125-2.721-7.86-2.396-10.582,0.727
				c-0.296,0.34-7.301,8.464-10.829,20.103c-3.423,11.294-4.265,28.009,11.17,43.506C267.81,82.472,250.741,109.982,250.576,110.243
				z"/>
			<path d="M354.849,477.078v0.971c0,4.143,3.357,7.5,7.5,7.5s7.5-3.357,7.5-7.5v-0.971c0-4.143-3.357-7.5-7.5-7.5
				S354.849,472.936,354.849,477.078z"/>
			<path d="M142.149,477.078v0.971c0,4.143,3.357,7.5,7.5,7.5s7.5-3.357,7.5-7.5v-0.971c0-4.143-3.357-7.5-7.5-7.5
				S142.149,472.936,142.149,477.078z"/>
			<path d="M482,191.934c0-9.488-7.701-17.207-17.168-17.207H412.39v-2.207c0-14.841-12.039-26.914-26.837-26.914h-29.004
				c-14.798,0-26.837,12.073-26.837,26.914v2.207h-32.373v-2.207c0-14.841-12.039-26.914-26.837-26.914h-29.004
				c-14.798,0-26.837,12.073-26.837,26.914v2.207h-34.308v-2.207c0-14.841-12.038-26.914-26.836-26.914h-29.004
				c-14.798,0-26.837,12.073-26.837,26.914v2.207H47.167c-9.467,0-17.168,7.719-17.168,17.207
				c0,62.443,50.153,113.35,112.15,114.264v137.756c-15.334,3.44-26.829,17.203-26.829,33.608c0,18.989,15.4,34.437,34.329,34.437
				c18.929,0,34.329-15.448,34.329-34.437c0-16.405-11.495-30.168-26.829-33.608v-60.087h197.7v60.087
				c-15.334,3.44-26.829,17.203-26.829,33.608c0,18.989,15.4,34.437,34.329,34.437s34.329-15.448,34.329-34.437
				c0-16.405-11.495-30.168-26.829-33.608V306.198C431.846,305.284,481.999,254.377,482,191.934z M344.711,172.52
				c0-6.569,5.31-11.914,11.837-11.914h29.004c6.527,0,11.837,5.345,11.837,11.914v2.207h-52.678V172.52z M229.66,172.52
				c0-6.569,5.31-11.914,11.837-11.914h29.004c6.527,0,11.837,5.345,11.837,11.914v2.207H229.66V172.52z M168.978,477.563
				c0,10.717-8.671,19.437-19.329,19.437c-10.658,0-19.329-8.721-19.329-19.438c0-10.717,8.671-19.436,19.329-19.436
				C160.308,458.126,168.978,466.846,168.978,477.563z M381.678,477.563c0,10.717-8.67,19.437-19.329,19.437
				s-19.329-8.721-19.329-19.438c0-10.717,8.671-19.436,19.329-19.436C373.007,458.126,381.678,466.846,381.678,477.563z
				 M368.149,291.211h-35.771c-4.143,0-7.5,3.357-7.5,7.5s3.357,7.5,7.5,7.5h22.471v62.656h-197.7v-62.656h142.357
				c4.143,0,7.5-3.357,7.5-7.5s-3.357-7.5-7.5-7.5H143.849c-54.506,0-98.85-44.535-98.85-99.277c0-1.217,0.973-2.207,2.168-2.207
				h78.795c4.143,0,7.5-3.357,7.5-7.5s-3.357-7.5-7.5-7.5h-13.286v-2.207c0-6.569,5.31-11.914,11.837-11.914h29.004
				c6.526,0,11.836,5.345,11.836,11.914v2.207h-11.835c-4.143,0-7.5,3.357-7.5,7.5s3.357,7.5,7.5,7.5h311.313
				c1.195,0,2.168,0.99,2.168,2.207C466.999,246.676,422.655,291.211,368.149,291.211z"/>
		</g>
	</g>
</g>
<g>
</g>
<g>
</g>
<g>
</g>
<g>
</g>
<g>
</g>
<g>
</g>
<g>
</g>
<g>
</g>
<g>
</g>
<g>
</g>
<g>
</g>
<g>
</g>
<g>
</g>
<g>
</g>
<g>
</g>
</svg>
